<svg xmlns="http://www.w3.org/2000/svg" version="1.1" xmlns:xlink="http://www.w3.org/1999/xlink" width="1000" height="1000"><g clip-path="url(#SvgjsClipPath1098)"><rect width="1000" height="1000" fill="#ffffff"></rect><g transform="matrix(26.52519893899204,0,0,26.52519893899204,248.4084880636605,150)"><svg xmlns="http://www.w3.org/2000/svg" version="1.1" xmlns:xlink="http://www.w3.org/1999/xlink" width="18.97" height="26.39"><svg id="Camada_2" data-name="Camada 2" xmlns="http://www.w3.org/2000/svg" viewBox="0 0 18.97 26.39">
  <defs>
    <style>
      .cls-1 {
        fill: #ff0e44;
      }
    </style>
  <clipPath id="SvgjsClipPath1098"><rect width="1000" height="1000" x="0" y="0" rx="350" ry="350"></rect></clipPath></defs>
  <g id="Camada_1-2" data-name="Camada 1">
    <path class="cls-1" d="M7.09,12.7c1.85-2.32,7.26-9.79,8.76-11.68,1.8-2.4,4.34,0,2.45,1.8-1.42,1.29-6.4,5.76-10.44,10.61-3.44,4.29-6.27,8.72-4.81,9.84,2.49,1.98,6.74-5.15,11.51-5.15,2.54,0,2.15,3.52.05,3.35-3.1-.3-5.15.13-7.17,1.37-2.97,1.93-4.64,4.6-6.62,3.14-3.3-2.45,4.34-10.82,6.27-13.27Z"></path>
  </g>
</svg></svg></g></g></svg>